<?xml version="1.0" encoding="utf-8"?>
<!-- Generator: Adobe Illustrator 26.5.0, SVG Export Plug-In . SVG Version: 6.00 Build 0)  -->
<svg version="1.1" id="Layer_1" xmlns="http://www.w3.org/2000/svg" xmlns:xlink="http://www.w3.org/1999/xlink" x="0px" y="0px"
	 viewBox="0 0 270 51.5" style="enable-background:new 0 0 270 51.5;" xml:space="preserve">
<style type="text/css">
	.st0{fill:#5C2FFF;}
	.st1{fill:#24272A;}
</style>
<g>
	<g>
		<path class="st0" d="M29.6,4L25,0.5c-1.1-0.8-2.7-0.6-3.5,0.5l4.7,3.5C27.2,5.3,28.8,5.1,29.6,4L29.6,4z"/>
		<path class="st0" d="M22.7,3.8L17.2,2c-1.3-0.4-2.8,0.3-3.2,1.6l5.6,1.9C20.9,5.9,22.3,5.2,22.7,3.8z"/>
		<path class="st0" d="M16.1,5.8L16.1,5.8l-5.9-0.1c-1.4,0-2.5,1.1-2.6,2.5l5.9,0.1C15,8.4,16.1,7.2,16.1,5.8z"/>
		<path class="st0" d="M3.2,14.7l5.6-1.8c1.3-0.4,2.1-1.8,1.6-3.2l-5.6,1.8C3.5,12,2.8,13.4,3.2,14.7C3.2,14.7,3.2,14.7,3.2,14.7z"
			/>
		<path class="st0" d="M6.3,15.3l-4.8,3.4c-1.1,0.8-1.4,2.4-0.6,3.5l4.8-3.4C6.8,18,7.1,16.4,6.3,15.3z"/>
		<path class="st0" d="M4,21.8l-3.5,4.7c-0.8,1.1-0.6,2.7,0.5,3.5l0,0l3.5-4.7C5.3,24.2,5.1,22.6,4,21.8z"/>
		<path class="st0" d="M3.8,28.7L3.8,28.7L2,34.3c-0.4,1.3,0.3,2.8,1.6,3.2l1.9-5.5C5.9,30.6,5.2,29.2,3.8,28.7z"/>
		<path class="st0" d="M5.8,35.3l-0.1,5.9c0,1.4,1.1,2.5,2.5,2.5l0.1-5.9C8.4,36.5,7.2,35.4,5.8,35.3z"/>
		<path class="st0" d="M9.8,41l1.8,5.6c0.4,1.3,1.8,2.1,3.2,1.7l-1.8-5.6C12.5,41.3,11.1,40.6,9.8,41z"/>
		<path class="st0" d="M15.3,45.2l3.4,4.8c0.8,1.1,2.4,1.4,3.5,0.6l-3.4-4.8C18,44.7,16.4,44.4,15.3,45.2z"/>
		<path class="st0" d="M21.8,47.5l4.7,3.5c1.1,0.8,2.7,0.6,3.5-0.5L25.4,47C24.2,46.1,22.6,46.4,21.8,47.5z"/>
		<path class="st0" d="M28.7,47.6L28.7,47.6l5.5,1.9c1.3,0.4,2.8-0.3,3.2-1.6L31.9,46C30.6,45.6,29.2,46.3,28.7,47.6z"/>
		<path class="st0" d="M35.3,45.6l5.9,0c1.4,0,2.5-1.1,2.5-2.5l-5.9,0C36.5,43.1,35.4,44.2,35.3,45.6z"/>
		<path class="st0" d="M42.7,38.5c-1.3,0.4-2.1,1.8-1.7,3.2l0,0l5.6-1.8c1.3-0.4,2.1-1.8,1.7-3.2L42.7,38.5z"/>
		<path class="st0" d="M45.8,32.7c-1.1,0.8-1.4,2.4-0.6,3.5l4.8-3.4c1.1-0.8,1.4-2.4,0.6-3.5C50.6,29.3,45.8,32.7,45.8,32.7z"/>
		<path class="st0" d="M47.5,29.6l3.5-4.7c0.8-1.1,0.6-2.7-0.5-3.5l0,0L47,26.1C46.1,27.2,46.4,28.8,47.5,29.6z"/>
		<path class="st0" d="M47.6,22.7L47.6,22.7l1.9-5.6c0.4-1.3-0.3-2.8-1.6-3.2L46,19.5C45.6,20.9,46.3,22.3,47.6,22.7z"/>
		<path class="st0" d="M45.6,16.1l0-5.9c0-1.4-1.1-2.5-2.5-2.6l0,5.9C43.1,15,44.2,16.1,45.6,16.1z"/>
		<path class="st0" d="M41.7,10.4L41.7,10.4l-1.8-5.6c-0.4-1.3-1.8-2.1-3.2-1.7l1.8,5.6C38.9,10.1,40.4,10.9,41.7,10.4z"/>
		<path class="st0" d="M36.2,6.3l-3.4-4.8c-0.8-1.1-2.4-1.4-3.5-0.6l3.4,4.8C33.5,6.8,35,7.1,36.2,6.3z"/>
		<path class="st0" d="M21.5,7.6l4.4,3.8c1,0.9,2.6,0.8,3.6-0.2l-4.4-3.8C24.1,6.5,22.5,6.6,21.5,7.6z"/>
		<path class="st0" d="M14.5,10.9l5.6,1.7c1.3,0.4,2.8-0.3,3.2-1.7l-5.6-1.7C16.4,8.8,14.9,9.6,14.5,10.9z"/>
		<path class="st0" d="M17.5,13.2l-5.8,0.7c-1.4,0.2-2.4,1.4-2.2,2.8l0,0l5.8-0.7C16.7,15.9,17.7,14.6,17.5,13.2z"/>
		<path class="st0" d="M13.1,17.6L13.1,17.6l-5,3c-1.2,0.7-1.6,2.3-0.9,3.5l5-3C13.4,20.4,13.8,18.8,13.1,17.6z"/>
		<path class="st0" d="M10.9,23.5l-3.4,4.8C6.8,29.4,7,31,8.2,31.8l3.4-4.8C12.3,25.9,12.1,24.3,10.9,23.5z"/>
		<path class="st0" d="M12.1,38.4l1.1-5.8c0.3-1.4-0.6-2.7-2-3l-1.1,5.7C9.9,36.8,10.8,38.1,12.1,38.4z"/>
		<path class="st0" d="M18.5,42.8l-1.3-5.7c-0.3-1.4-1.7-2.2-3-1.9l1.3,5.7C15.8,42.3,17.1,43.2,18.5,42.8z"/>
		<path class="st0" d="M26.1,44.3l-3.5-4.7c-0.8-1.1-2.4-1.3-3.5-0.5l3.5,4.7C23.4,44.9,25,45.2,26.1,44.3z"/>
		<path class="st0" d="M33.6,42.6l-5.1-2.8c-1.2-0.7-2.8-0.2-3.4,1l5.1,2.8C31.4,44.2,32.9,43.8,33.6,42.6z"/>
		<path class="st0" d="M39.8,37.9L39.8,37.9l-5.8-0.5c-1.4-0.1-2.6,0.9-2.7,2.3l5.8,0.5C38.4,40.3,39.7,39.3,39.8,37.9z"/>
		<path class="st0" d="M43.5,31.2L38,33c-1.3,0.5-2,1.9-1.6,3.2l5.5-1.9C43.3,33.9,44,32.5,43.5,31.2z"/>
		<path class="st0" d="M44.2,23.5l-4.3,4c-1,1-1.1,2.5-0.1,3.6l4.3-4C45.1,26.1,45.1,24.5,44.2,23.5z"/>
		<path class="st0" d="M39.4,21.5c-0.5,1.3,0,2.8,1.3,3.3l0,0l2.3-5.4c0.5-1.3,0-2.8-1.3-3.3L39.4,21.5z"/>
		<path class="st0" d="M39,18.9L39,13c0-1.4-1.2-2.5-2.6-2.5l0.1,5.9C36.5,17.8,37.6,18.9,39,18.9z"/>
		<path class="st0" d="M29.3,7.5l2.5,5.3c0.6,1.3,2.1,1.8,3.4,1.2l-2.5-5.3C32,7.4,30.5,6.9,29.3,7.5z"/>
		<path class="st0" d="M29.1,19.2l-3.6-4.6c-0.9-1.1-2.5-1.3-3.5-0.4l3.6,4.6C26.4,19.9,28,20.1,29.1,19.2z"/>
		<path class="st0" d="M14.9,20.2l5.8,0.7c1.4,0.2,2.6-0.8,2.8-2.2L17.7,18C16.3,17.8,15,18.8,14.9,20.2z"/>
		<path class="st0" d="M18.8,25.9c1.1-0.9,1.3-2.5,0.4-3.5L14.6,26c-1.1,0.9-1.3,2.5-0.4,3.5L18.8,25.9z"/>
		<path class="st0" d="M20.2,36.6l0.7-5.8c0.2-1.4-0.8-2.6-2.2-2.8L18,33.8C17.8,35.2,18.8,36.4,20.2,36.6z"/>
		<path class="st0" d="M29.5,37.3l-3.6-4.6c-0.9-1.1-2.5-1.3-3.5-0.4l3.6,4.6C26.8,38,28.4,38.2,29.5,37.3z"/>
		<path class="st0" d="M36.6,31.2l-5.8-0.7c-1.4-0.2-2.6,0.8-2.8,2.2l5.8,0.7C35.2,33.6,36.4,32.6,36.6,31.2z"/>
		<path class="st0" d="M32.7,25.6c-1.1,0.9-1.3,2.5-0.4,3.5l4.6-3.6c1.1-0.9,1.3-2.5,0.4-3.5l0,0L32.7,25.6z"/>
		<path class="st0" d="M32.7,23.5l0.7-5.8c0.2-1.4-0.8-2.6-2.2-2.8l-0.7,5.8C30.4,22.1,31.3,23.3,32.7,23.5z"/>
	</g>
	<path class="st1" d="M62.1,12.6h6.8v3.6c1-1.5,2.3-2.6,3.7-3.4c1.4-0.7,2.9-1.1,4.4-1.1c3,0,5.2,0.8,6.6,2.3c1.4,1.6,2.2,4,2.2,7.3
		v17.2h-7V22.4c0-1.8-0.3-3.1-1.1-3.8c-0.7-0.7-1.6-1-2.8-1c-0.9,0-1.7,0.1-2.3,0.4s-1.3,0.6-1.8,1.1c-0.5,0.5-0.9,1-1.2,1.7
		c-0.3,0.6-0.5,1.4-0.5,2.1v15.7h-7L62.1,12.6L62.1,12.6z"/>
	<path class="st1" d="M90.4,12.6h7v16.3c0,1.9,0.3,3.1,1,3.8c0.7,0.7,1.6,1,2.8,1c0.9,0,1.6-0.1,2.2-0.4s1.1-0.7,1.7-1.2
		c0.5-0.5,1-1,1.3-1.7c0.3-0.6,0.5-1.4,0.5-2.1V12.6h7v26.1H107v-3.6c-1.1,1.5-2.3,2.7-3.6,3.3c-1.3,0.7-2.8,1-4.3,1
		c-3,0-5.2-0.8-6.6-2.3s-2.1-4-2.1-7.3L90.4,12.6L90.4,12.6z"/>
	<path class="st1" d="M136.9,35.4c-0.9,1.3-2.1,2.3-3.5,3s-2.9,1-4.4,1c-3.7,0-6.4-1.2-8.2-3.7c-1.8-2.5-2.7-5.9-2.7-10.2
		c0-2,0.3-3.9,0.8-5.6c0.5-1.7,1.3-3.1,2.2-4.4c1-1.2,2.2-2.2,3.6-2.8c1.4-0.7,3-1,4.8-1c1.4,0,2.8,0.3,4.1,0.8
		c1.3,0.5,2.5,1.5,3.6,2.9v-2.9h6.8v38.5h-7L136.9,35.4L136.9,35.4z M137,25.3c0-1.7-0.1-3-0.4-4s-0.7-1.8-1.4-2.5
		c-0.6-0.6-1.3-1-2-1.2c-0.7-0.2-1.4-0.3-2.1-0.3c-0.8,0-1.5,0.1-2.2,0.5c-0.7,0.3-1.3,0.8-1.8,1.4c-0.5,0.6-0.9,1.5-1.2,2.5
		s-0.4,2.3-0.4,3.7c0,1.6,0.1,2.9,0.4,3.9c0.3,1,0.7,1.9,1.2,2.5s1.1,1.1,1.8,1.4s1.4,0.4,2.1,0.4c1.7,0,3-0.5,4.1-1.5
		c0.7-0.7,1.2-1.5,1.5-2.4c0.3-1,0.5-2.2,0.5-3.7L137,25.3L137,25.3z"/>
	<path class="st1" d="M149.2,0.3h7v38.4h-7V0.3z"/>
	<path class="st1" d="M185.3,30.5c-0.5,2.9-1.6,5.2-3.5,6.7c-1.9,1.5-4.6,2.3-8.2,2.3c-4.3,0-7.6-1.2-9.8-3.6
		c-2.2-2.4-3.3-5.8-3.3-10.2c0-2.2,0.3-4.1,0.9-5.9c0.6-1.7,1.5-3.2,2.7-4.4s2.5-2.1,4.1-2.7c1.6-0.6,3.4-0.9,5.3-0.9
		c4,0,7,1.1,9,3.4s3,5.4,3,9.3v2.8h-18.1c0.1,2.1,0.6,3.7,1.6,4.9c1,1.2,2.5,1.8,4.5,1.8c2.8,0,4.4-1.2,4.9-3.5L185.3,30.5
		L185.3,30.5z M178.9,22.7c0-1.8-0.4-3.2-1.3-4.2s-2.3-1.5-4.1-1.5c-0.9,0-1.8,0.1-2.4,0.5c-0.7,0.3-1.3,0.7-1.8,1.2
		c-0.5,0.5-0.9,1.1-1.1,1.8c-0.3,0.7-0.4,1.4-0.4,2.2L178.9,22.7L178.9,22.7z"/>
	<path class="st1" d="M202.1,39.5c-4.2,0-7.4-1.2-9.7-3.6c-2.3-2.4-3.4-5.8-3.4-10.3c0-2.1,0.3-4,0.9-5.8c0.6-1.7,1.5-3.2,2.6-4.4
		c1.1-1.2,2.5-2.1,4.2-2.7s3.4-0.9,5.4-0.9s3.9,0.3,5.5,0.9c1.6,0.6,3,1.5,4.2,2.7s2,2.6,2.6,4.4c0.6,1.7,0.9,3.6,0.9,5.8
		s-0.3,4.1-0.9,5.8c-0.6,1.7-1.5,3.2-2.6,4.4c-1.1,1.2-2.5,2.1-4.2,2.8S204.1,39.5,202.1,39.5L202.1,39.5z M202.1,33.9
		c2,0,3.5-0.7,4.5-2.1c1-1.4,1.5-3.5,1.5-6.1s-0.5-4.7-1.5-6.1s-2.5-2.1-4.5-2.1s-3.5,0.7-4.5,2.1s-1.5,3.4-1.5,6.1s0.5,4.8,1.4,6.2
		C198.6,33.2,200.1,33.9,202.1,33.9L202.1,33.9z"/>
	<path class="st1" d="M219.4,12.6h7v16.3c0,1.9,0.3,3.1,1,3.8c0.7,0.7,1.6,1,2.8,1c0.9,0,1.6-0.1,2.2-0.4s1.1-0.7,1.7-1.2
		c0.5-0.5,1-1,1.3-1.7c0.3-0.6,0.5-1.4,0.5-2.1V12.6h7v26.1H236v-3.6c-1.1,1.5-2.3,2.7-3.6,3.3s-2.8,1-4.3,1c-3,0-5.1-0.8-6.6-2.3
		c-1.4-1.5-2.1-4-2.1-7.3L219.4,12.6L219.4,12.6z"/>
	<path class="st1" d="M253,30.4c0.2,1.5,0.9,2.5,1.9,3c1,0.5,2.2,0.7,3.6,0.7c1.7,0,2.9-0.2,3.6-0.6c0.7-0.4,1.1-1.1,1.1-2
		c0-0.7-0.2-1.2-0.7-1.8s-1.3-0.9-2.6-1l-3.6-0.6c-3.2-0.5-5.5-1.4-7.1-2.6c-1.6-1.2-2.3-3.1-2.3-5.5c0-1.3,0.3-2.4,0.8-3.4
		s1.3-1.9,2.3-2.6s2.2-1.2,3.6-1.6s2.9-0.6,4.6-0.6c2.1,0,3.8,0.2,5.2,0.6c1.4,0.4,2.5,1,3.4,1.7s1.5,1.5,2,2.5s0.8,2,1,3.1
		l-6.2,0.8c-0.3-1.2-0.8-2.1-1.6-2.6s-2-0.9-3.6-0.9c-0.9,0-1.7,0.1-2.3,0.2c-0.6,0.1-1.1,0.3-1.4,0.6c-0.4,0.2-0.6,0.5-0.8,0.8
		s-0.2,0.6-0.2,0.9c0,0.8,0.3,1.4,0.8,1.8c0.5,0.4,1.5,0.7,3,1l3.3,0.5c1.8,0.3,3.4,0.7,4.5,1.1c1.2,0.5,2.2,1,2.9,1.7
		c0.7,0.7,1.2,1.5,1.5,2.4s0.4,2,0.4,3.2c0,2.5-0.9,4.4-2.8,5.9s-4.8,2.2-8.6,2.2c-1.6,0-3.1-0.1-4.5-0.4c-1.4-0.3-2.7-0.8-3.8-1.5
		c-1.1-0.7-2-1.6-2.8-2.8s-1.1-2.6-1.2-4.4L253,30.4L253,30.4z"/>
	<g>
		<path class="st0" d="M153.9,46.4v4.7h-0.6v-4.7H153.9z"/>
		<path class="st0" d="M164.6,46.4v4.7h-0.5l-2.4-3.5v3.5h-0.6v-4.7h0.5l2.4,3.5v-3.5H164.6z"/>
		<path class="st0" d="M174.8,47h-1.4v4.1h-0.6V47h-1.4v-0.6h3.4V47z"/>
		<path class="st0" d="M184.4,50.5v0.6h-2.8v-4.7h2.8V47h-2.1v1.4h2V49h-2v1.5L184.4,50.5L184.4,50.5z"/>
		<path class="st0" d="M194,50.5v0.6h-2.6v-4.7h0.6v4.1H194z"/>
		<path class="st0" d="M203.5,50.5v0.6h-2.6v-4.7h0.6v4.1H203.5z"/>
		<path class="st0" d="M210.9,46.4v4.7h-0.6v-4.7H210.9z"/>
		<path class="st0" d="M222.6,49c0,1.2-0.9,2.1-2.3,2.1s-2.5-1.1-2.5-2.4s1-2.4,2.5-2.4c0.9,0,1.6,0.5,2,1.1l-0.5,0.3
			c-0.3-0.5-0.8-0.8-1.5-0.8c-1.1,0-1.8,0.8-1.8,1.8s0.8,1.8,1.9,1.8c1,0,1.6-0.5,1.7-1.2h-1.7v-0.6h2.4L222.6,49L222.6,49z"/>
		<path class="st0" d="M232.4,50.5v0.6h-2.8v-4.7h2.8V47h-2.1v1.4h2V49h-2v1.5L232.4,50.5L232.4,50.5z"/>
		<path class="st0" d="M242.9,46.4v4.7h-0.5l-2.4-3.5v3.5h-0.6v-4.7h0.5l2.4,3.5v-3.5H242.9z"/>
		<path class="st0" d="M249.8,48.7c0-1.4,1-2.4,2.5-2.4c0.9,0,1.6,0.5,2,1.1l-0.5,0.3c-0.3-0.5-0.8-0.8-1.5-0.8
			c-1.1,0-1.8,0.8-1.8,1.8s0.7,1.8,1.8,1.8c0.6,0,1.2-0.3,1.5-0.8l0.5,0.3c-0.4,0.7-1.2,1.2-2,1.2C250.8,51.2,249.8,50.1,249.8,48.7
			L249.8,48.7z"/>
		<path class="st0" d="M264,50.5v0.6h-2.8v-4.7h2.8V47h-2.1v1.4h2V49h-2v1.5L264,50.5L264,50.5z"/>
	</g>
	<g>
		<path class="st0" d="M70.3,49.3h-1.1v1.8h-0.6v-4.7h1.9c0.8,0,1.5,0.7,1.5,1.5c0,0.6-0.4,1.2-1,1.4l1.1,1.9h-0.7L70.3,49.3
			L70.3,49.3z M69.2,48.7h1.3c0.5,0,0.8-0.4,0.8-0.9S70.9,47,70.5,47h-1.3V48.7z"/>
		<path class="st0" d="M82.9,50.5v0.6h-2.8v-4.7h2.8V47h-2.2v1.4h2V49h-2v1.5L82.9,50.5L82.9,50.5z"/>
		<path class="st0" d="M94,47h-1.4v4.1H92V47h-1.4v-0.6H94V47z"/>
		<path class="st0" d="M104.4,50h-2.1l-0.4,1h-0.7l1.8-4.7h0.7l1.8,4.7h-0.7L104.4,50L104.4,50z M104.2,49.4l-0.8-2.3l-0.8,2.3
			C102.5,49.4,104.2,49.4,104.2,49.4z"/>
		<path class="st0" d="M114,46.4v4.7h-0.6v-4.7H114z"/>
		<path class="st0" d="M125.1,50.5v0.6h-2.7v-4.7h0.6v4.1H125.1z"/>
	</g>
</g>
<path class="st0" d="M269.5,4.5c-0.2,0.4-0.4,0.7-0.7,1c-0.3,0.3-0.6,0.5-1,0.7s-0.8,0.2-1.2,0.2s-0.9-0.1-1.2-0.2
	c-0.4-0.2-0.7-0.4-1-0.7s-0.5-0.6-0.7-1s-0.2-0.8-0.2-1.2s0.1-0.8,0.2-1.2s0.4-0.7,0.7-1c0.3-0.3,0.6-0.5,1-0.7s0.8-0.2,1.2-0.2
	s0.9,0.1,1.2,0.2c0.4,0.2,0.7,0.4,1,0.7s0.5,0.6,0.7,1s0.2,0.8,0.2,1.2S269.7,4.2,269.5,4.5z M269.2,2.2c-0.1-0.3-0.3-0.6-0.6-0.9
	c-0.2-0.2-0.5-0.4-0.9-0.6s-0.7-0.2-1.1-0.2s-0.8,0.1-1.1,0.2s-0.6,0.4-0.9,0.6s-0.4,0.5-0.6,0.9c-0.1,0.3-0.2,0.7-0.2,1.1
	s0.1,0.8,0.2,1.1c0.1,0.3,0.3,0.6,0.6,0.9s0.5,0.4,0.9,0.6c0.3,0.1,0.7,0.2,1.1,0.2s0.8-0.1,1.1-0.2s0.6-0.3,0.9-0.6
	s0.4-0.6,0.6-0.9c0.1-0.3,0.2-0.7,0.2-1.1S269.4,2.6,269.2,2.2z"/>
<path class="st0" d="M267.5,4.8l-0.7-1.2h-0.6v1.2h-0.5V1.5h1.3c0.3,0,0.5,0.1,0.8,0.3c0.2,0.2,0.3,0.5,0.3,0.8
	c0,0.2-0.1,0.4-0.2,0.6s-0.3,0.3-0.5,0.4l0.7,1.3L267.5,4.8L267.5,4.8z M266.2,2v1.1h0.8c0.1,0,0.3,0,0.4-0.2s0.1-0.2,0.1-0.4
	s0-0.3-0.1-0.4S267.1,2,266.9,2L266.2,2L266.2,2z"/>
</svg>
